<svg xmlns="http://www.w3.org/2000/svg" viewBox="0 0 512 512">
  <defs>
    <linearGradient id="g" x1="0" y1="0" x2="1" y2="1">
      <stop offset="0%" stop-color="#1F2937"/>
      <stop offset="100%" stop-color="#CBD5E1"/>
    </linearGradient>
  </defs>
  <path d="M256 22 C330 22 406 48 444 76 L426 318 C416 389 347 455 256 492 C165 455 96 389 86 318 L68 76 C106 48 182 22 256 22Z"
        fill="url(#g)" stroke="#111" stroke-width="14"/>
  <path d="M256 58 C319 58 378 77 406 96 L391 307 C383 360 329 414 256 449 C183 414 129 360 121 307 L106 96 C134 77 193 58 256 58Z"
        fill="none" stroke="rgba(255,255,255,.85)" stroke-width="10"/>
  <circle cx="256" cy="232" r="112" fill="rgba(255,255,255,.88)" stroke="#111" stroke-width="8"/>
  <text x="256" y="255" text-anchor="middle" font-family="Arial,Helvetica,sans-serif"
        font-size="88" font-weight="900" fill="#111">REM</text>
  <text x="256" y="365" text-anchor="middle" font-family="Arial,Helvetica,sans-serif"
        font-size="24" font-weight="700" fill="#fff">REMO</text>
</svg>